<svg xmlns:xl="http://www.w3.org/1999/xlink" xmlns="http://www.w3.org/2000/svg" viewBox="198 125 957.903 480" width="957.903" height="480"><defs><clipPath id="c"><path d="M1014.903 446.76h141v87h-141z"/></clipPath><clipPath id="d"><path d="M1014.903 548.76h141v56h-141z"/></clipPath><clipPath id="e"><path d="M198 178.24h137.5v56H198z"/></clipPath><clipPath id="f"><path d="M198 398.1h137.5v56H198z"/></clipPath><clipPath id="g"><path d="M198.75 255.6h136v87h-136z"/></clipPath><clipPath id="h"><path d="M369.952 255.6h136v87h-136z"/></clipPath><clipPath id="i"><path d="M369.952 382.6h136v87h-136z"/></clipPath><clipPath id="j"><path d="M566.952 319.8h136v87h-136z"/></clipPath><clipPath id="k"><path d="M1014.903 375.76h141v56h-141z"/></clipPath><linearGradient x2="1" id="a" gradientUnits="userSpaceOnUse"><stop offset="0" stop-color="#263238" stop-opacity=".2"/><stop offset="1" stop-color="#263238" stop-opacity=".02"/></linearGradient><linearGradient id="l" xl:href="#a" gradientTransform="matrix(0 5.18933 -5.18933 0 1047.423 398.684)"/><radialGradient cx="0" cy="0" r="1" id="b" gradientUnits="userSpaceOnUse"><stop offset="0" stop-color="#fff" stop-opacity=".1"/><stop offset="1" stop-color="#fff" stop-opacity="0"/></radialGradient><radialGradient id="m" xl:href="#b" gradientTransform="matrix(12.6947 0 0 12.6947 1042.552 403.76)"/><clipPath id="n"><path d="M1014.903 125.24h141v235.48h-141z"/></clipPath><clipPath id="o"><path d="M1021.4 184.678h127.548v38H1021.4z"/></clipPath><clipPath id="p"><path d="M817.25 319.8h136v87h-136z"/></clipPath></defs><g fill="none"><path fill="#fff" d="M1014.903 446.76h141v87h-141z"/><path stroke="#dfdfdf" stroke-linecap="round" stroke-linejoin="round" stroke-width="2" clip-path="url(#c)" d="M1014.903 446.76h141v87h-141z"/><path fill="#dfdfdf" d="M1031.491 494.76h107.824v1h-107.824z"/><text transform="translate(1060.52 507.76)" fill="#212121"><tspan font-family="Roboto" font-size="10" font-weight="400" x="0" y="9">Cloud Datalab</tspan></text><text transform="translate(1031.491 458.76)" fill="#212121"><tspan font-family="Roboto" font-size="12" font-weight="400" x="12.117" y="11">Interactive Data</tspan> <tspan font-family="Roboto" font-size="12" font-weight="400" x="23.932" y="25">Exploration</tspan></text><path d="M1052.219 512.979l-4.392-7.637c-.352-.61-.99-.982-1.647-.982h-8.783c-.704 0-1.318.413-1.647.981l-4.392 7.622a1.916 1.916 0 0 0 0 1.91l4.391 7.67c.352.61.99 1.017 1.647 1.017h8.784c.704 0 1.318-.443 1.647-1.012l4.391-7.637a1.959 1.959 0 0 0 0-1.932" fill="#4285f4"/><path d="M1041.887 507.572l-.575.584 1.444 1.444-.666.159 1.436 1.582-.51.118-1.726-1.726-.59.567 1.23 1.23-1.11-.013-.735.43.728.729-2.392 4.154.691 1.85 4.88 4.88h2.188c.703 0 1.318-.443 1.647-1.012l3.299-5.737z" fill="#000" fill-opacity=".07"/><path d="M1040.976 509.586a.41.41 0 1 1 0 .82.41.41 0 0 1 0-.82" fill="#fff"/><path d="M1042.522 508.708a.615.615 0 1 1-.001 1.229.615.615 0 0 1 0-1.23" fill="#fff"/><path d="M1041.59 507.445a.41.41 0 1 1 .001.818.41.41 0 0 1 0-.818" fill="#fff"/><path d="M1043.315 516.965l-.289-.5h1.98l-1.97-3.413h-.069l1.695 2.912h-4.408l-.528.914a.205.205 0 0 0 0 .205l.643 1.113h4.233l.702-1.215-.009-.016z" fill="#fff"/><path d="M1044.685 517.043l-.557.964a.204.204 0 0 1-.178.102h-4.324a.204.204 0 0 1-.177-.102l-.557-.964a.205.205 0 0 1 0-.205l2.165-3.75a.41.41 0 0 0 .056-.205v-.926h1.35v.926c0 .072.02.142.055.204l2.167 3.751a.205.205 0 0 1 0 .205m.697-.29l-2.235-3.871a.204.204 0 0 1-.028-.103v-.822h.326a.083.083 0 0 0 .084-.083v-.472a.084.084 0 0 0-.084-.084h-3.314a.084.084 0 0 0-.083.084v.472c0 .046.037.083.083.083h.326v.822c0 .036-.01.071-.027.103l-2.236 3.871a.41.41 0 0 0 0 .41l.817 1.414a.41.41 0 0 0 .355.205h4.845a.409.409 0 0 0 .354-.205l.817-1.414a.408.408 0 0 0 0-.41" fill="#fff"/><path d="M1041.713 514.286h1.998l-.3-.475h-1.973z" fill="#fff"/><path d="M1042.122 514.962l.286.496h2.04l-.295-.496z" fill="#fff"/><text transform="translate(535.25 283.6)" fill="#616161"><tspan font-family="Roboto" font-size="10" font-weight="400" x="0" y="9">Streaming Pipeline</tspan></text><g><text transform="translate(535.25 432)" fill="#616161"><tspan font-family="Roboto" font-size="10" font-weight="400" x="0" y="9">Batch Pipeline</tspan></text></g><g><text transform="translate(714.223 334.098)" fill="#616161"><tspan font-family="Roboto" font-size="10" font-weight="400" x="0" y="9">Streaming Pipeline</tspan></text></g><g><text transform="translate(722.274 383.57)" fill="#616161"><tspan font-family="Roboto" font-size="10" font-weight="400" x="0" y="9">Batch Pipeline</tspan></text></g><g><path fill="#fff" d="M1014.903 548.76h141v56h-141z"/><path stroke="#dfdfdf" stroke-linecap="round" stroke-linejoin="round" stroke-width="2" clip-path="url(#d)" d="M1014.903 548.76h141v56h-141z"/><text transform="translate(1062.953 569.76)" fill="#212121"><tspan font-family="Roboto" font-size="12" font-weight="400" x="0" y="11">Coworkers</tspan></text><g><path d="M1044.776 575.942a2.462 2.462 0 0 0 2.454-2.455 2.462 2.462 0 0 0-2.454-2.454 2.462 2.462 0 0 0-2.455 2.454 2.462 2.462 0 0 0 2.455 2.455zm-6.546 0a2.462 2.462 0 0 0 2.455-2.455 2.462 2.462 0 0 0-2.455-2.454 2.462 2.462 0 0 0-2.454 2.454 2.462 2.462 0 0 0 2.454 2.455zm0 1.636c-1.909 0-5.727.955-5.727 2.864v2.045h11.455v-2.045c0-1.91-3.819-2.864-5.728-2.864zm6.546 0c-.232 0-.505.014-.791.041.954.682 1.609 1.61 1.609 2.823v2.045h4.909v-2.045c0-1.91-3.818-2.864-5.727-2.864z" fill="#616161"/></g></g><g><path fill="#fff" d="M198 178.24h137.5v56H198z"/><path stroke="#dfdfdf" stroke-linecap="round" stroke-linejoin="round" stroke-width="2" clip-path="url(#e)" d="M198 178.24h137.5v56H198z"/><text transform="translate(239 199.24)" fill="#212121"><tspan font-family="Roboto" font-size="12" font-weight="400" x="0" y="11">Real-time Events</tspan></text><g><path d="M212.317 201.74h13.5v-1.5h-13.5c-.825 0-1.5.675-1.5 1.5v8.25h-1.5v2.25h10.5v-2.25h-7.5zm14.25 1.5h-4.5a.752.752 0 0 0-.75.75v7.5c0 .412.337.75.75.75h4.5c.412 0 .75-.338.75-.75v-7.5a.752.752 0 0 0-.75-.75zm-.75 6.75h-3v-5.25h3z" fill="#616161"/></g></g><g><path fill="#fff" d="M198 398.101h137.5v56H198z"/><path stroke="#dfdfdf" stroke-linecap="round" stroke-linejoin="round" stroke-width="2" clip-path="url(#f)" d="M198 398.101h137.5v56H198z"/><text transform="translate(239 419.1)" fill="#212121"><tspan font-family="Roboto" font-size="12" font-weight="400" x="0" y="11">Batch Load</tspan></text><g><path d="M222.184 417.365H213.1a.701.701 0 0 0-.699.699v16.074c0 .384.314.699.699.699h9.085a.7.7 0 0 0 .7-.7v-16.073a.7.7 0 0 0-.7-.7zm-4.542 12.851a1.05 1.05 0 1 1 .001-2.098 1.05 1.05 0 0 1-.001 2.098zm3.843-5.098h-7.687v-.35h7.687zm0-2.097h-7.687v-.349h7.687zm0-2.27h-7.687v-2.098h7.687z" fill="#616161"/></g></g><g><path fill="#fff" d="M198.75 255.601h136v87h-136z"/><path stroke="#dfdfdf" stroke-linecap="round" stroke-linejoin="round" stroke-width="2" clip-path="url(#g)" d="M198.75 255.601h136v87h-136z"/><path fill="#dfdfdf" d="M214.75 303.601h104v1h-104z"/><text transform="translate(242.75 316.6)" fill="#212121"><tspan font-family="Roboto" font-size="10" font-weight="400" x="0" y="9">App Engine</tspan></text><g><text transform="translate(214.75 267.6)" fill="#212121"><tspan font-family="Roboto" font-size="12" font-weight="400" x="13.088" y="11">Authentication </tspan> <tspan font-family="Roboto" font-size="12" font-weight="400" x="17.828" y="25">Game Server</tspan></text></g><g><path d="M236.066 322.07l-4.392-7.86c-.352-.627-.99-1.01-1.647-1.01h-8.783c-.704 0-1.319.425-1.647 1.01l-4.392 7.844a2.021 2.021 0 0 0 0 1.965l4.391 7.895c.352.627.99 1.045 1.647 1.045h8.784c.704 0 1.318-.456 1.647-1.041l4.391-7.86a2.067 2.067 0 0 0 0-1.988" fill="#4285f4"/><path d="M231.857 322.733l-.116-.036-5.825-5.995-1.196 1.8 1.002 1.03-2.55.956-.996 2.609-.977-1.007-1.762 1.592 9.015 9.277h1.575c.704 0 1.318-.456 1.647-1.04l3.325-5.952z" fill="#000" fill-opacity=".07"/><path d="M225.635 326.085c-1.613 0-2.92-1.345-2.92-3.004 0-1.66 1.307-3.005 2.92-3.005 1.612 0 2.92 1.345 2.92 3.005 0 1.659-1.308 3.004-2.92 3.004m0-6.964c-2.125 0-3.848 1.772-3.848 3.96 0 2.187 1.723 3.96 3.848 3.96s3.847-1.773 3.847-3.96c0-2.188-1.722-3.96-3.847-3.96" fill="#fff"/><path d="M231.67 322.611l-1.605-.518a4.79 4.79 0 0 1 .053 1.684h1.552c.143-.043.239-.135.239-.27v-.625c0-.136-.096-.23-.24-.27" fill="#fff"/><g><path d="M225.634 318.416c.322 0 .637.035.94.1l-.576-1.645c-.041-.147-.13-.246-.263-.246h-.24c-.132 0-.224.099-.263.246l-.5 1.637a4.43 4.43 0 0 1 .902-.092" fill="#fff"/></g><g><path d="M221.102 323.081c0-.34.036-.67.103-.988l-1.605.518c-.143.041-.239.135-.239.272v.624c0 .135.096.227.24.27h1.551a4.803 4.803 0 0 1-.05-.696" fill="#fff"/></g><g><path d="M226.258 323.721a.862.862 0 0 1-1.246 0 .924.924 0 0 1 0-1.281.862.862 0 0 1 1.246 0 .924.924 0 0 1 0 1.281m.751-1.932l-.364.373a1.357 1.357 0 0 0-1.96 0 1.459 1.459 0 0 0 0 2.018l-.364.374c.344.355.82.574 1.343.574 1.049 0 1.902-.877 1.902-1.957 0-.54-.213-1.028-.557-1.382" fill="#fff"/></g></g></g><g><path fill="#fff" d="M369.952 255.601h136v87h-136z"/><path stroke="#dfdfdf" stroke-linecap="round" stroke-linejoin="round" stroke-width="2" clip-path="url(#h)" d="M369.952 255.601h136v87h-136z"/><path fill="#dfdfdf" d="M385.952 303.601h104v1h-104z"/><text transform="translate(413.952 316.6)" fill="#212121"><tspan font-family="Roboto" font-size="10" font-weight="400" x="0" y="9">Cloud Pub/Sub</tspan></text><g><text transform="translate(385.952 267.6)" fill="#212121"><tspan font-family="Roboto" font-size="12" font-weight="400" x="13.911" y="11">Asynchronous</tspan> <tspan font-family="Roboto" font-size="12" font-weight="400" x="22.633" y="25">Messaging</tspan></text></g><g><path d="M407.267 321.82l-4.391-7.638c-.353-.61-.99-.981-1.647-.981h-8.784c-.703 0-1.318.412-1.647.98l-4.391 7.622a1.916 1.916 0 0 0 0 1.91l4.39 7.672c.353.61.991 1.016 1.648 1.016h8.783c.704 0 1.318-.444 1.647-1.012l4.392-7.637a1.959 1.959 0 0 0 0-1.933" fill="#4285f4"/><path d="M401.047 320.087l-.978.203-2.438-2.438-.78 1.459-.423 1.687.716.717-1.375.28-1.887-1.886-1.28 1.232 2.358 2.357-2.5 1.987 6.717 6.716h2.051c.704 0 1.318-.444 1.647-1.012l3.459-6.015z" fill="#000" fill-opacity=".07"/><path d="M399.985 319.957a.889.889 0 1 1 .89 1.538.889.889 0 0 1-.89-1.538" fill="#fff"/><path d="M392.8 321.495a.889.889 0 1 1 .888-1.54.889.889 0 0 1-.889 1.54" fill="#fff"/><path d="M397.726 326.95a.889.889 0 1 1-1.778 0 .889.889 0 0 1 1.778 0" fill="#fff"/><path d="M396.837 320.954c.141 0 .278.017.41.047v-2.35h-.82v2.35c.132-.03.268-.047.41-.047" fill="#fff"/><g><path d="M398.601 323.346a1.84 1.84 0 0 1-.412.709l2.035 1.175.41-.71z" fill="#fff"/></g><g><path d="M395.072 323.346l-2.033 1.174.41.71 2.036-1.175c-.187-.2-.33-.441-.413-.71" fill="#fff"/></g><g><path d="M398.273 322.8a1.436 1.436 0 1 1-2.871 0 1.436 1.436 0 0 1 2.87 0" fill="#fff"/></g><g><path d="M392.68 323.897a1.129 1.129 0 1 1 1.128 1.957 1.129 1.129 0 0 1-1.128-1.957" fill="#fff"/></g><g><path d="M399.866 325.852a1.127 1.127 0 1 1 1.128-1.955 1.128 1.128 0 0 1-1.128 1.955" fill="#fff"/></g><g><path d="M397.965 318.652a1.129 1.129 0 1 1-2.257 0 1.129 1.129 0 0 1 2.257 0" fill="#fff"/></g></g></g><g><path fill="#fff" d="M369.952 382.601h136v87h-136z"/><path stroke="#dfdfdf" stroke-linecap="round" stroke-linejoin="round" stroke-width="2" clip-path="url(#i)" d="M369.952 382.601h136v87h-136z"/><path fill="#dfdfdf" d="M385.952 430.601h104v1h-104z"/><text transform="translate(413.952 443.6)" fill="#212121"><tspan font-family="Roboto" font-size="10" font-weight="400" x="0" y="9">Cloud Storage</tspan></text><g><text transform="translate(385.952 401.6)" fill="#212121"><tspan font-family="Roboto" font-size="12" font-weight="400" x="6.941" y="11">Raw Log Storage</tspan></text></g><g><path d="M407.267 448.82l-4.391-7.638c-.353-.61-.99-.981-1.647-.981h-8.784c-.703 0-1.318.412-1.647.98l-4.391 7.622a1.916 1.916 0 0 0 0 1.91l4.39 7.672c.353.61.991 1.016 1.648 1.016h8.783c.704 0 1.318-.444 1.647-1.012l4.392-7.637a1.959 1.959 0 0 0 0-1.933" fill="#4285f4"/><path d="M400.424 447.555l-6.04.555-1.17 1.167.995.995-.985 1.749 7.38 7.38h.624c.704 0 1.319-.444 1.647-1.012l3.06-5.322z" fill="#000" fill-opacity=".07"/><g><path d="M399.221 448.84a.415.415 0 1 1 .003-.83.415.415 0 0 1-.003.83m1.071-1.331h-6.917a.203.203 0 0 0-.203.202v1.43c0 .112.091.203.202.203h6.918a.203.203 0 0 0 .203-.202v-1.431a.203.203 0 0 0-.203-.202" fill="#fff"/></g><g><path d="M399.221 451.589a.413.413 0 1 1-.001-.828.413.413 0 0 1 .001.828m1.071-1.331h-6.917a.203.203 0 0 0-.203.203v1.43c0 .11.091.202.202.202h6.918a.203.203 0 0 0 .203-.202v-1.43a.203.203 0 0 0-.203-.203" fill="#fff"/></g></g></g><g><path fill="#fff" d="M566.952 319.801h136v87h-136z"/><path stroke="#dfdfdf" stroke-linecap="round" stroke-linejoin="round" stroke-width="2" clip-path="url(#j)" d="M566.952 319.801h136v87h-136z"/><path fill="#dfdfdf" d="M582.952 367.801h104v1h-104z"/><text transform="translate(610.952 380.8)" fill="#212121"><tspan font-family="Roboto" font-size="10" font-weight="400" x="0" y="9">Cloud Dataflow</tspan></text><g><text transform="translate(582.952 331.8)" fill="#212121"><tspan font-family="Roboto" font-size="12" font-weight="400" x="18.326" y="11">Parallel Data</tspan> <tspan font-family="Roboto" font-size="12" font-weight="400" x="22.223" y="25">Processing</tspan></text></g><g><path d="M604.267 386.02l-4.391-7.638c-.353-.61-.99-.981-1.647-.981h-8.784c-.703 0-1.318.412-1.647.98l-4.391 7.622a1.916 1.916 0 0 0 0 1.91l4.39 7.672c.353.61.991 1.016 1.648 1.016h8.783c.704 0 1.319-.444 1.647-1.012l4.392-7.637a1.959 1.959 0 0 0 0-1.933" fill="#4285f4"/><path d="M596.57 382.267l-2.713.637-2.753-.637 1.512 1.512-2.444 2.253.646.646-.6.771.753.753-.799.925 2.302 2.302-1.37.347 4.824 4.825h2.3c.704 0 1.319-.444 1.647-1.012l3.657-6.36z" fill="#000" fill-opacity=".07"/><path d="M597.035 386.429a.597.597 0 1 1 0 1.194.597.597 0 0 1 0-1.194" fill="#fff"/><path d="M590.638 386.429a.597.597 0 1 1 0 1.193.597.597 0 0 1 0-1.193" fill="#fff"/><g><path d="M593.837 385.534a.597.597 0 1 1 0 1.194.597.597 0 0 1 0-1.195" fill="#fff"/></g><g><path d="M593.837 387.324a.597.597 0 1 1 0 1.194.597.597 0 0 1 0-1.194" fill="#fff"/></g><g><path d="M594.736 383.326l1.833-1.059-.887-.512h-.024l-1.821 1.051-1.821-1.051h-.025l-.887.512 1.833 1.059-2.765 1.587v1.119h.943v-.6l2.268-1.325v.973h.907v-.973l2.264 1.325v.6h.947v-1.119z" fill="#fff"/></g><g><path d="M596.554 388.608l-2.264 1.326v-.963h-.907v.963l-2.268-1.326v-.6h-.943v1.12l2.768 1.588-1.836 1.06.887.513h.025l1.82-1.052 1.822 1.052h.024l.888-.513-1.836-1.06 2.767-1.589v-1.119h-.947z" fill="#fff"/></g></g></g><g><path fill="#fff" d="M1014.903 375.76h141v56h-141z"/><path stroke="#dfdfdf" stroke-linecap="round" stroke-linejoin="round" stroke-width="2" clip-path="url(#k)" d="M1014.903 375.76h141v56h-141z"/><text transform="translate(1062.953 396.76)" fill="#212121"><tspan font-family="Roboto" font-size="12" font-weight="400" x="0" y="11">Google Sheets </tspan></text><g><path d="M1044.418 393.494h-7.933c-.77 0-1.4.63-1.4 1.4v17.733c0 .77.63 1.4 1.4 1.4h12.133c.77 0 1.4-.63 1.4-1.4v-13.533z" fill="#000"/><path d="M1044.418 393.494h-7.933c-.77 0-1.4.63-1.4 1.4v17.733c0 .77.63 1.4 1.4 1.4h12.133c.77 0 1.4-.63 1.4-1.4v-13.533l-3.266-2.334z" fill="#0f9d58"/><path d="M1038.818 403.527v6.767h7.467v-6.767zm3.267 5.833h-2.333v-1.166h2.333zm0-1.866h-2.333v-1.167h2.333zm0-1.867h-2.333v-1.167h2.333zm3.266 3.733h-2.333v-1.166h2.333zm0-1.866h-2.333v-1.167h2.333zm0-1.867h-2.333v-1.167h2.333z" fill="#f1f1f1"/><path d="M1044.828 398.684l5.19 5.19v-4.78z" fill="url(#l)"/><path d="M1044.418 393.494v4.2a1.4 1.4 0 0 0 1.4 1.4h4.2z" fill="#87ceac"/><path d="M1036.485 393.494c-.77 0-1.4.63-1.4 1.4v.116c0-.77.63-1.4 1.4-1.4h7.933v-.116z" fill="#fff" fill-opacity=".2"/><path d="M1048.618 413.91h-12.133c-.77 0-1.4-.63-1.4-1.4v.117c0 .77.63 1.4 1.4 1.4h12.133c.77 0 1.4-.63 1.4-1.4v-.117c0 .77-.63 1.4-1.4 1.4z" fill="#263238" fill-opacity=".2"/><g><path d="M1045.818 399.094a1.4 1.4 0 0 1-1.4-1.4v.116a1.4 1.4 0 0 0 1.4 1.4h4.2v-.116z" fill="#263238" fill-opacity=".1"/></g><g><path d="M1044.418 393.494h-7.933c-.77 0-1.4.63-1.4 1.4v17.733c0 .77.63 1.4 1.4 1.4h12.133c.77 0 1.4-.63 1.4-1.4v-13.533z" fill="url(#m)"/></g></g></g><g><path d="M335.5 426.6h24.551a.5.5 0 1 0 0-1H335.5a.5.5 0 0 0 0 1zm32.551-1h-8v1h8zm-4.353-3.146l4 4v-.707l-4 4 .707.707 4-4 .354-.353-.354-.354-4-4z" fill="#616161"/></g><g><path d="M334.75 299.6h25.301a.5.5 0 1 0 0-1H334.75a.5.5 0 1 0 0 1zm33.301-1h-8v1h8zm-4.353-3.146l4 4v-.707l-4 4 .707.707 4-4 .354-.353-.354-.354-4-4z" fill="#616161"/></g><g><path d="M505.952 426.6h10l73.724.14h45.275a.5.5 0 0 0 .5-.5v-9.54a.5.5 0 1 0-1 0v9.54l.5-.5h-45.274l-73.725-.14h-10a.5.5 0 0 0 0 1zm128.5-17.9v8h1v-8zm-3.147 4.354l4-4h-.707l4 4 .707-.707-4-4-.353-.353-.354.353-4 4z" fill="#616161"/></g><g><path d="M505.952 299.6H634.95l-.5-.5v10.8a.5.5 0 0 0 1 0v-10.8a.5.5 0 0 0-.5-.5h-129a.5.5 0 0 0 0 1zm129.5 18.3v-8h-1v8zm3.146-4.353l-4 4h.707l-4-4-.707.707 4 4 .354.354.353-.354 4-4z" fill="#616161"/></g><g><path d="M266.25 234.24v11.46a.5.5 0 1 0 1 0v-11.46a.5.5 0 0 0-1 0zm1 19.46v-8h-1v8zm3.146-4.353l-4 4h.708l-4-4-.708.707 4 4 .354.354.354-.354 4-4z" fill="#616161"/></g><g><path d="M1005.003 576.26h-17.75l.5.5V168.24l-.5.5h18.1a.5.5 0 0 0 0-1h-18.1a.5.5 0 0 0-.5.5v408.52a.5.5 0 0 0 .5.5h17.75a.5.5 0 1 0 0-1zm8.35-408.52h-8v1h8zm-4.354-3.147l4 4v-.707l-4 4 .707.707 4-4 .354-.353-.354-.354-4-4zm4.004 411.667h-8v1h8zm-4.354-3.146l4 4v-.707l-4 4 .708.707 4-4 .353-.354-.353-.353-4-4z" fill="#616161"/></g><g><path d="M988 490.76h17.816a.5.5 0 1 0 0-1H988a.5.5 0 0 0 0 1zm25.816-1h-8v1h8zm-4.354-3.146l4 4v-.707l-4 4 .707.707 4-4 .354-.354-.354-.353-4-4z" fill="#616161"/></g><g><path d="M702.952 380.626h105.5a.5.5 0 1 0 0-1h-105.5a.5.5 0 0 0 0 1zm113.5-1h-8v1h8zm-4.354-3.146l4 4v-.707l-4 4 .707.707 4-4 .354-.354-.354-.353-4-4z" fill="#616161"/></g><g><path d="M702.952 350.68h105.5a.5.5 0 1 0 0-1h-105.5a.5.5 0 0 0 0 1zm113.5-1h-8v1h8zm-4.354-3.146l4 4v-.707l-4 4 .707.707 4-4 .354-.353-.354-.354-4-4z" fill="#616161"/></g><g><path fill="#fff" d="M1014.903 125.24h141v235.48h-141z"/><path stroke="#dfdfdf" stroke-linecap="round" stroke-linejoin="round" stroke-width="2" clip-path="url(#n)" d="M1014.903 125.24h141v235.48h-141z"/><path fill="#dfdfdf" d="M1031.491 175.293h107.824v1.043h-107.824z"/><text transform="translate(1031.491 145.352)" fill="#212121"><tspan font-family="Roboto" font-size="12" font-weight="400" x="32.833" y="11">BI Tools</tspan></text><path d="M1085.427 337.679c-.233.233-.514.467-.747.7a.951.951 0 0 0-.281.702v1.59c0 .327-.14.467-.42.467h-1.45c-.327 0-.467-.14-.467-.468v-9.956c0-.374.093-.467.467-.467h1.31c.466 0 .56.093.56.56v4.394c0 .14-.093.374.094.421.14.047.233-.14.327-.28a34.506 34.506 0 0 0 1.776-1.917c.234-.28.514-.374.888-.374h1.87c.093 0 .233-.046.28.094.047.14-.047.187-.14.28-.654.701-1.309 1.356-1.963 2.057-.421.42-.421.514-.14 1.028.84 1.356 1.635 2.758 2.477 4.113.093.14.233.234.14.421-.094.187-.28.094-.42.094h-1.637c-.374 0-.607-.14-.794-.468l-1.683-2.804c.047-.047 0-.14-.047-.187zM1076.406 335.716v4.814c0 .514-.093.608-.607.608h-1.31c-.42 0-.513-.094-.513-.515v-9.862c0-.42.093-.514.514-.514h1.355c.42 0 .514.093.514.56.047 1.59.047 3.226.047 4.909zM1080.473 337.071v3.459c0 .514-.094.608-.561.608h-1.309c-.374 0-.514-.14-.514-.515v-7.058c0-.42.093-.514.514-.514h1.355c.374 0 .515.14.515.514v3.506zM1079.304 330.2h.701c.28 0 .374.14.374.374v1.028c0 .28-.14.374-.374.374h-1.542c-.28 0-.374-.14-.374-.42v-1.029c0-.233.14-.374.42-.374.281.047.561.047.795.047z" fill="#5f6062"/><path d="M1107.863 340.95c-.56-.467-1.075-.934-1.636-1.402-.187-.14-.233-.233-.093-.467.701-1.262 1.028-2.57.935-4.02-.234-3.692-3.366-6.59-7.152-6.59-.187 0-.467 0-.748.046-4.113.421-7.011 4.488-6.123 8.554 1.075 4.908 6.544 7.152 10.797 4.44.188-.093.281-.093.421.047l1.823 1.543c.327.233.468.233.748-.047.374-.42.748-.888 1.122-1.309.28-.327.234-.514-.094-.794zm-7.899-.98c-2.43 0-4.347-1.964-4.347-4.395 0-2.337 1.963-4.3 4.347-4.3 2.384 0 4.347 1.963 4.347 4.347.047 2.337-1.963 4.347-4.347 4.347z" fill="#6eb33f"/><path d="M1072.62 339.782c-.327-.28-.608-.56-.935-.794-.187-.14-.234-.28-.093-.515.514-.841.748-1.776.748-2.757 0-.28 0-.561-.094-.888-.467-2.992-3.412-5.049-6.404-4.488-3.038.561-5 3.553-4.3 6.544.842 3.6 4.815 5.375 8.087 3.506.187-.094.28-.094.42.047.374.327.748.654 1.169 1.028.233.187.42.187.607-.047.28-.327.561-.654.889-.981.14-.281.14-.468-.094-.655zm-5.75-.981c-1.729 0-3.13-1.403-3.13-3.039 0-1.776 1.355-3.178 3.13-3.225 1.73 0 3.133 1.45 3.133 3.132a3.132 3.132 0 0 1-3.132 3.132zM1099.964 332.818a2.813 2.813 0 0 1 2.804 2.804 2.813 2.813 0 0 1-2.804 2.805 2.813 2.813 0 0 1-2.804-2.805 2.783 2.783 0 0 1 2.804-2.804z" fill="#5f6062"/><g><path d="M1048.378 292.031h-2.912v-3.161h-1.165v3.161h-2.829v1.082h2.829v3.162h1.165v-3.162h2.912z" fill="#e8762b"/><path d="M1042.554 297.19h-2.58v-2.829h-.998v2.829h-2.58v.832h2.58v2.829h.998v-2.83h2.58z" fill="#c62035"/><path d="M1053.453 287.04h-2.58v-2.83h-.998v2.83h-2.579v.915h2.58v2.745h.998v-2.745h2.579z" fill="#59869a"/><path d="M1047.13 300.268h-1.748v-1.997h-.915v1.997h-1.747v.749h1.747v1.997h.915v-1.997h1.748z" fill="#5a6590"/><path d="M1042.554 287.04h-2.663v-2.83h-.915v2.83h-2.58v.831h2.58v2.83h.915v-2.83h2.663z" fill="#eb902b"/><path d="M1055.45 292.198h-1.748V290.2h-.832v1.997h-1.83v.749h1.83v1.996h.832v-1.996h1.748z" fill="#5a6590"/><path d="M1053.453 297.19h-2.58v-2.829h-.998v2.829h-2.579v.832h2.58v2.829h.998v-2.83h2.579z" fill="#1f447e"/><path d="M1044.634 282.214v1.913h-1.748v.583h1.748v1.913h.582v-1.913h1.747v-.583h-1.747v-1.913zM1036.147 290.367v1.914h-1.747v.582h1.747v1.914h.583v-1.914h1.747v-.582h-1.747v-1.914z" fill="#7098a5"/><path d="M1087.565 291.033c.665-.25 1.165-.333 1.58-.333 1.831 0 2.996 1.248 2.996 3.245 0 2.08-1.248 3.245-3.495 3.245-.748 0-1.58-.167-2.33-.416v-9.07h1.332v3.329h-.083m1.165 4.909c1.248 0 1.996-.75 1.996-1.997 0-1.248-.748-1.997-1.83-1.997-.5 0-.998.167-1.331.333v3.494c.416.084.749.167 1.165.167M1097.299 286.374h1.331v11.898h-1.331zM1105.536 293.196h3.078c0-.832-.499-1.248-1.248-1.248-.832-.083-1.58.416-1.83 1.248m1.498 3.994c-2.08-.167-3.079-1.664-2.996-3.328.084-1.83 1.248-3.162 3.079-3.162 1.913 0 2.995 1.415 2.912 3.495h-4.576c.083 1.164.832 1.664 1.747 1.747.832.083 1.914-.083 2.496-.5v1.249c-.832.416-1.664.582-2.662.499M1129.082 296.108c.832 0 1.414-.416 1.414-1.414v-3.91h1.331v4.076c0 1.415-1.081 2.247-2.745 2.247-1.664 0-2.746-.832-2.746-2.247v-4.077h1.331v3.91c0 1 .583 1.415 1.415 1.415M1077.331 297.19c-2.246 0-3.494-1.165-3.494-3.245 0-1.997 1.248-3.245 2.995-3.245.582 0 1.082.167 1.58.416v-.416h1.332v6.074c-.666.25-1.58.416-2.413.416m-.166-1.248c.333 0 .665 0 1.165-.167v-3.41c-.416-.334-.832-.417-1.332-.417-1.164 0-1.83.749-1.83 1.997.083 1.248.749 1.997 1.997 1.997M1118.765 297.19c-2.247 0-3.495-1.165-3.495-3.245 0-1.997 1.248-3.245 2.996-3.245.582 0 1.081.167 1.58.416v-.416h1.332v6.074c-.666.25-1.581.416-2.413.416m-.167-1.248c.25 0 .666 0 1.165-.167v-3.41c-.416-.334-.832-.417-1.331-.417-1.165 0-1.83.749-1.83 1.997 0 1.248.748 1.997 1.996 1.997M1064.02 288.12h1.33v3.745h3.578v1.248h-3.578v4.077h-1.33v-4.077h-3.578v-1.248h3.577zM1134.074 290.783c.416 0 .748.333.748.832 0 .416-.332.832-.748.832a.834.834 0 0 1-.832-.832c.083-.499.416-.832.832-.832zm0 .084c-.333 0-.666.332-.666.665 0 .416.25.666.666.666.332 0 .665-.333.665-.666s-.333-.665-.665-.665zm-.167 1.164h-.166v-.915h.25c.166 0 .249 0 .249.083.083 0 .083.084.083.167s-.083.166-.166.25c.083 0 .166.083.166.249 0 .166.083.166.083.25h-.166s-.083-.084-.083-.25a.179.179 0 0 0-.167-.166h-.083v.332zm0-.499h.083c.084 0 .25-.083.25-.166s-.083-.167-.25-.167h-.083z" fill="#1f447e"/></g><g><path d="M1099.222 248.465v-1.024h-1.441v9.086h1.494v-5.258c0-1.818 1.335-2.646 2.899-2.558v-1.481c-1.037-.125-2.267.264-2.952 1.235zm-6.782-1.254c-2.513 0-4.55 2.153-4.55 4.782 0 2.664 2.037 4.746 4.637 4.746 2.092 0 3.638-1.093 4.27-3.034h-1.582c-.493 1.057-1.404 1.677-2.688 1.677-1.492 0-2.933-1.114-3.127-3h7.608c.019-3.23-2.232-5.171-4.568-5.171zm-2.952 3.83c.387-1.553 1.704-2.47 2.952-2.47 1.317 0 2.547.986 2.918 2.47zm-.878-3.6h-2.196l-4.129 4.076V243.4h-1.494v13.127h1.494V253.6l1.738-1.697 3.092 4.624h1.81l-3.812-5.682zm-22.595-.23c-2.566 0-4.553 2.153-4.553 4.8 0 2.612 1.987 4.746 4.553 4.746 2.582 0 4.55-2.134 4.55-4.745 0-2.648-1.968-4.8-4.55-4.8zm0 8.1c-1.67 0-3.042-1.482-3.042-3.3 0-1.853 1.372-3.372 3.042-3.372 1.684 0 3.055 1.518 3.055 3.373 0 1.817-1.37 3.298-3.055 3.298zm-6.54-2.153V243.4H1058v9.81c0 2.312 1.457 3.566 3.584 3.317v-1.41c-1.124.053-2.108-.354-2.108-1.96z" fill="#3e4345"/><g><path d="M1072.128 241.908c.503 0 .929-.323 1.092-.775l-.473-.193a.657.657 0 0 1-.619.454.658.658 0 0 1 0-1.314c.357 0 .648.288.653.648l.492.2a1.1 1.1 0 0 0 .02-.192 1.17 1.17 0 0 0-1.165-1.172 1.172 1.172 0 0 0 0 2.344m2.687.304a.98.98 0 0 1 .127-.479l-.716-.294a1.753 1.753 0 0 0 .028 1.603l.612-.529a1.006 1.006 0 0 1-.051-.301m.982-.987c.541 0 .98.442.98.986 0 .546-.439.987-.98.987a.97.97 0 0 1-.717-.317l-.582.506c.32.356.783.584 1.299.584.965 0 1.75-.788 1.75-1.76 0-.967-.785-1.758-1.75-1.758-.57 0-1.072.275-1.392.698l.76.313a.975.975 0 0 1 .632-.239m-4.087 5.629c-.722 0-1.31-.59-1.31-1.315 0-.724.588-1.314 1.31-1.314.254 0 .492.074.693.2l.796-.687a2.31 2.31 0 0 0-1.489-.542 2.341 2.341 0 0 0-2.336 2.343 2.342 2.342 0 0 0 2.336 2.344c.323 0 .632-.066.915-.188l-.7-.86c-.072.01-.144.019-.215.019m1.31-1.315c0 .373-.157.712-.408.95l.648.796a2.34 2.34 0 0 0 .339-3.119l-.78.675c.13.21.2.451.2.698m2.518 1.672c-.67 0-1.296.148-1.86.413l.956 1.171c.29-.103.596-.155.904-.156 1.685 0 3.058 1.519 3.058 3.373 0 1.817-1.373 3.298-3.058 3.298-1.669 0-3.04-1.481-3.04-3.298 0-1.114.496-2.1 1.252-2.717l-.933-1.142c-1.117.875-1.828 2.277-1.828 3.859 0 2.611 1.984 4.745 4.55 4.745 2.58 0 4.549-2.134 4.549-4.745 0-2.648-1.968-4.8-4.55-4.8" fill="#652b81"/></g></g><g><path fill="#fff" d="M1021.4 184.678h127.548v38H1021.4z"/><path clip-path="url(#o)" d="M1021.4 184.678h127.548v38H1021.4z"/><text transform="translate(1063.472 196.678)" fill="#212121"><tspan font-family="Roboto" font-size="12" font-weight="400" x="0" y="11">Data Studio</tspan></text><g><path d="M1051.777 193.868a2.612 2.612 0 0 1 2.587 2.606 2.617 2.617 0 0 1-2.587 2.613zM1051.777 193.868v5.219h-.025a2.612 2.612 0 0 1-2.607-2.613 2.607 2.607 0 0 1 2.607-2.606h.025z" fill="#1a73e8"/><path d="M1043.9 193.868h7.849a2.607 2.607 0 0 0-2.607 2.606 2.612 2.612 0 0 0 2.607 2.613h-7.755c-1.259 0-2.412-.843-2.664-2.065a2.62 2.62 0 0 1 2.57-3.154z" fill="#669df6"/><path d="M1051.777 208.264a2.612 2.612 0 0 1 2.587 2.607 2.617 2.617 0 0 1-2.587 2.612zM1051.777 208.264v5.22h-.025a2.612 2.612 0 0 1-2.607-2.613 2.607 2.607 0 0 1 2.607-2.607h.025z" fill="#1a73e8"/><path d="M1043.9 208.264h7.849a2.607 2.607 0 0 0-2.607 2.607 2.612 2.612 0 0 0 2.607 2.612h-7.755c-1.259 0-2.412-.843-2.664-2.064a2.62 2.62 0 0 1 2.57-3.155z" fill="#669df6"/><g><path d="M1044.379 201.037a2.612 2.612 0 0 1 2.586 2.607 2.617 2.617 0 0 1-2.586 2.612zM1044.379 201.037v5.22h-.026a2.612 2.612 0 0 1-2.607-2.613 2.607 2.607 0 0 1 2.607-2.607h.025z" fill="#1a73e8"/><path d="M1036.5 201.037h7.85a2.607 2.607 0 0 0-2.607 2.607 2.612 2.612 0 0 0 2.607 2.612h-7.755c-1.259 0-2.411-.843-2.664-2.064a2.62 2.62 0 0 1 2.57-3.155z" fill="#669df6"/></g><g><path d="M1052.036 208.221h-7.807c-1.89 0-2.942 1.322-2.942 2.727 0 1.3.895 2.728 2.942 2.728h7.807z" fill="#669df6"/><ellipse cx="1052.036" cy="210.945" rx="2.687" ry="2.727" fill="#1a73e8"/></g><g><path d="M1043.971 200.951h-7.806c-1.89 0-2.942 1.322-2.942 2.727 0 1.3.895 2.728 2.942 2.728h7.806z" fill="#669df6"/><ellipse cx="1043.971" cy="203.675" rx="2.687" ry="2.727" fill="#1a73e8"/></g><g><path d="M1052.036 193.681h-7.807c-1.89 0-2.942 1.322-2.942 2.727 0 1.3.895 2.728 2.942 2.728h7.807z" fill="#669df6"/><ellipse cx="1052.036" cy="196.408" rx="2.687" ry="2.727" fill="#1a73e8"/></g></g></g></g><g><path d="M953.485 363.53l33.273-.309a.5.5 0 1 0-.009-1l-33.274.31a.5.5 0 1 0 .01 1z" fill="#616161"/></g><g><path fill="#fff" d="M817.25 319.801h136v87h-136z"/><path stroke="#dfdfdf" stroke-linecap="round" stroke-linejoin="round" stroke-width="2" clip-path="url(#p)" d="M817.25 319.801h136v87h-136z"/><path fill="#dfdfdf" d="M833.25 367.801h104v1h-104z"/><text transform="translate(861.25 380.8)" fill="#212121"><tspan font-family="Roboto" font-size="10" font-weight="400" x="0" y="9">BigQuery</tspan></text><g><text transform="translate(833.25 338.8)" fill="#212121"><tspan font-family="Roboto" font-size="12" font-weight="400" x="8.175" y="11">Analytics Engine</tspan></text></g><g><path d="M854.566 386.02l-4.392-7.638c-.352-.61-.99-.981-1.647-.981h-8.783c-.704 0-1.319.412-1.647.98l-4.392 7.622a1.916 1.916 0 0 0 0 1.91l4.391 7.672c.352.61.99 1.016 1.647 1.016h8.784c.703 0 1.318-.444 1.647-1.012l4.391-7.637a1.959 1.959 0 0 0 0-1.933" fill="#4285f4"/><path d="M850.174 395.589l2.927-5.09-6.19-6.19-2.776-.743-2.493.926-.963 2.509.774 2.793 6.808 6.807h.266c.704 0 1.318-.444 1.647-1.012" fill="#000" fill-opacity=".07"/><path d="M844.135 389.939a2.938 2.938 0 1 1-.001-5.876 2.938 2.938 0 0 1 .001 5.876m0-6.811a3.872 3.872 0 1 0 0 7.745 3.872 3.872 0 0 0 0-7.745" fill="#fff"/><path d="M842.297 386.85v1.205c.178.306.43.562.731.747v-1.951z" fill="#fff"/><g><path d="M843.747 385.837v3.24c.124.023.251.037.382.037.12 0 .236-.012.35-.031v-3.246z" fill="#fff"/></g><g><path d="M845.265 387.352v1.429c.306-.195.559-.465.732-.785v-.644z" fill="#fff"/></g><g><path d="M846.922 389.386l-.401.402a.18.18 0 0 0 0 .256l1.521 1.522c.07.07.186.07.257 0l.401-.402a.182.182 0 0 0 0-.256l-1.522-1.522a.181.181 0 0 0-.256 0" fill="#fff"/></g></g></g><g><path d="M988 404.26h17.816a.5.5 0 1 0 0-1H988a.5.5 0 0 0 0 1zm25.816-1h-8v1h8zm-4.354-3.146l4 4v-.707l-4 4 .707.707 4-4 .354-.354-.354-.353-4-4z" fill="#616161"/></g></g></svg>
