<svg xmlns="http://www.w3.org/2000/svg" viewBox="0 0 880 330" width="880" height="330"><defs><clipPath id="a"><path d="M42 132h124v56H42z"/></clipPath><clipPath id="b"><path d="M250 132h124v56H250z"/></clipPath><clipPath id="c"><path d="M458 132h124v56H458z"/></clipPath><clipPath id="d"><path d="M666 72h149v56H666z"/></clipPath><clipPath id="e"><path d="M666 147h149v56H666z"/></clipPath><clipPath id="f"><path d="M666 222h149v56H666z"/></clipPath><marker orient="auto" overflow="visible" id="g" stroke-miterlimit="10" viewBox="-1 -5 10 10" markerWidth="10" markerHeight="10" color="#616161"><path d="M8 0H0m4-4l4 4-4 4" fill="none" stroke="currentColor"/></marker></defs><g fill="none"><title>Figure 1</title><title>Layer 1</title><path fill="#fff" d="M42 132h124v56H42z"/><path stroke="#dfdfdf" stroke-linecap="round" stroke-linejoin="round" stroke-width="2" clip-path="url(#a)" d="M42 132h124v56H42z"/><text transform="translate(87 153)" fill="#212121"><tspan font-family="Roboto" font-size="12" font-weight="400" x=".459" y="11">Ingest</tspan></text><path fill="#fff" d="M250 132h124v56H250z"/><path stroke="#dfdfdf" stroke-linecap="round" stroke-linejoin="round" stroke-width="2" clip-path="url(#b)" d="M250 132h124v56H250z"/><text transform="translate(281 146)" fill="#212121"><tspan font-family="Roboto" font-size="12" font-weight="400" x="16.85" y="11">Store</tspan> <tspan font-family="Roboto" font-size="12" font-weight="400" x="5" y="25">(data lake)</tspan></text><path fill="#fff" d="M458 132h124v56H458z"/><path stroke="#dfdfdf" stroke-linecap="round" stroke-linejoin="round" stroke-width="2" clip-path="url(#c)" d="M458 132h124v56H458z"/><text transform="translate(480 146)" fill="#212121"><tspan font-family="Roboto" font-size="12" font-weight="400" x=".273" y="11">Mine &amp; identify</tspan> <tspan font-family="Roboto" font-size="12" font-weight="400" x="11.752" y="25">workflows</tspan></text><title>zone external - grey</title><path fill="#eaedef" d="M649 24h183v272H649z"/><text transform="translate(659 39)" fill="#757575"><tspan font-family="Roboto" font-size="10" font-weight="400" x="0" y="9">Implement workflows</tspan></text><path fill="#fff" d="M666 72h149v56H666z"/><path stroke="#dfdfdf" stroke-linecap="round" stroke-linejoin="round" stroke-width="2" clip-path="url(#d)" d="M666 72h149v56H666z"/><text transform="translate(711 93)" fill="#212121"><tspan font-family="Roboto" font-size="12" font-weight="400" x="1" y="11">Data marts</tspan></text><path fill="#fff" d="M666 147h149v56H666z"/><path stroke="#dfdfdf" stroke-linecap="round" stroke-linejoin="round" stroke-width="2" clip-path="url(#e)" d="M666 147h149v56H666z"/><text transform="translate(688 168)" fill="#212121"><tspan font-family="Roboto" font-size="12" font-weight="400" x="3" y="11">Real-time analytics</tspan></text><g><path fill="#fff" d="M666 222h149v56H666z"/><path stroke="#dfdfdf" stroke-linecap="round" stroke-linejoin="round" stroke-width="2" clip-path="url(#f)" d="M666 222h149v56H666z"/><text transform="translate(693 243)" fill="#212121"><tspan font-family="Roboto" font-size="12" font-weight="400" x="2" y="11">Machine learning</tspan></text></g><g><title>line arrow - grey</title><path d="M166 160h74.1" marker-end="url(#g)" stroke="#616161" stroke-linecap="round" stroke-linejoin="round"/></g><g><title>line arrow - grey</title><path d="M374 160h74.1" marker-end="url(#g)" stroke="#616161" stroke-linecap="round" stroke-linejoin="round"/></g><g><title>line arrow - grey</title><path d="M582 160h57.1" marker-end="url(#g)" stroke="#616161" stroke-linecap="round" stroke-linejoin="round"/></g></g></svg>