<svg xmlns="http://www.w3.org/2000/svg" viewBox="0 0 985.25 601.08"><defs><style>.cls-1,.cls-3{fill:#fff;}.cls-11,.cls-2{fill:#afbdc4;}.cls-16,.cls-3{stroke:#eee;stroke-miterlimit:10;}.cls-4{fill:#e8f0fe;}.cls-13,.cls-5,.cls-6{font-size:12px;fill:#3c4043;}.cls-5,.cls-8,.cls-9{font-family:GoogleSans-Regular, Google Sans;}.cls-6{font-family:GoogleSans-Bold, Google Sans;font-weight:700;}.cls-13,.cls-14,.cls-7{font-family:GoogleSans-Medium, Google Sans;font-weight:500;}.cls-7,.cls-9{letter-spacing:0em;}.cls-8,.cls-9{font-weight:400;}.cls-10{fill:#4285f4;}.cls-11{fill-rule:evenodd;}.cls-12{opacity:0.07;isolation:isolate;}.cls-15,.cls-16{fill:none;}</style></defs><title>Artboard 14 copy</title><g id="Layer_6" data-name="Layer 6"><rect class="cls-1" x="-0.29" y="-0.15" width="985.25" height="601.08"/><rect class="cls-1" x="195.91" y="102.82" width="587.44" height="405.16" rx="50"/><path class="cls-2" d="M733.35,508.47H245.91a50.55,50.55,0,0,1-50.5-50.5V152.82a50.55,50.55,0,0,1,50.5-50.5H733.35a50.56,50.56,0,0,1,50.5,50.5V458A50.56,50.56,0,0,1,733.35,508.47ZM245.91,103.32a49.55,49.55,0,0,0-49.5,49.5V458a49.55,49.55,0,0,0,49.5,49.5H733.35a49.56,49.56,0,0,0,49.5-49.5V152.82a49.56,49.56,0,0,0-49.5-49.5Z"/><rect class="cls-3" x="141.06" y="239.73" width="110" height="131.08" rx="7.81"/><rect class="cls-4" x="406.42" y="122.82" width="172.86" height="365.5" rx="7.81"/><rect class="cls-3" x="428.1" y="412.43" width="131.5" height="55.88" rx="7.81"/><text class="cls-5" transform="translate(447.29 437)">Hyperparameter <tspan x="29.32" y="14">tuning</tspan></text><rect class="cls-3" x="428.1" y="336.86" width="131.5" height="55.88" rx="7.81"/><text class="cls-6" transform="translate(477.74 222.67)">Train<tspan class="cls-7" x="29.41" y="0"> </tspan><tspan class="cls-8"><tspan x="-14.65" y="14.4">your model</tspan></tspan></text><text class="cls-6" transform="translate(175.35 307.18)">Define <tspan class="cls-8"><tspan x="-5.46" y="14.4">your data</tspan><tspan x="-0.91" y="28.8">schema</tspan><tspan x="-3.86" y="43.2">and label</tspan></tspan></text><text class="cls-6" transform="translate(303.62 307.18)">Analyze<tspan class="cls-9" x="45.82" y="0"> </tspan><tspan class="cls-8"><tspan x="-4.64" y="14.4">your input </tspan><tspan x="1.43" y="28.8">features</tspan></tspan></text><text class="cls-5" transform="translate(475.43 361.43)">Model <tspan x="-6.21" y="14">selection</tspan></text><rect class="cls-3" x="428.1" y="261.3" width="131.5" height="55.88" rx="7.81"/><text class="cls-5" transform="translate(471.52 285.87)">Feature <tspan x="-10.03" y="14">engineering</tspan></text><path class="cls-10" d="M325.42,272.1a5,5,0,1,1,5-5A5,5,0,0,1,325.42,272.1Zm6.67,0h-.89l-.33-.27a7,7,0,1,0-.72.77l.28.34v.83l5.55,5.56,1.67-1.67Z"/><polygon class="cls-11" points="272.83 304.46 266.37 310.23 266.37 298.79 272.83 304.46"/><rect class="cls-2" x="253.84" y="303.46" width="18" height="2"/><polygon class="cls-11" points="403.92 304.46 397.45 310.23 397.45 298.79 403.92 304.46"/><rect class="cls-2" x="384.92" y="303.46" width="18" height="2"/><path class="cls-10" d="M521,165.26l-11.42-19.89a5,5,0,0,0-4.29-2.55H482.42a5,5,0,0,0-4.29,2.55l-11.44,19.85a5,5,0,0,0,0,5l11.44,19.95a5.11,5.11,0,0,0,4.29,2.64h22.87a5.1,5.1,0,0,0,4.29-2.63L521,170.29A5.12,5.12,0,0,0,521,165.26Z"/><path class="cls-12" d="M501.49,157.16l-2.55.55-2.12.3-9.67-2.36-3.74,14-.63,1.43,4.73,5.88.73,3.5,12.05,12.38h5a5.14,5.14,0,0,0,4.29-2.64l9.19-16Z"/><polygon class="cls-1" points="494.4 159.48 497.32 159.48 500.22 159.48 501.57 157.16 500.22 154.83 497.32 154.83 494.4 154.83 486.72 154.83 480.22 166.57 482.83 171.1 489.27 159.48 494.4 159.48"/><polygon class="cls-1" points="505.6 164.17 499.18 175.78 494.03 175.78 491.13 175.78 488.21 175.78 486.87 178.11 488.21 180.43 491.13 180.43 494.03 180.43 501.72 180.43 508.22 168.71 505.6 164.17"/><polygon class="cls-1" points="490.86 165.1 491.14 169.87 494.61 172 494.61 167.4 490.86 165.1"/><polygon class="cls-1" points="493.17 164.28 496.73 166.1 496.62 170.38 495.01 169.58 495.1 167.1 493.17 166.06 493.17 164.28"/><polygon class="cls-11" points="139.29 304.46 132.82 310.23 132.82 298.79 139.29 304.46"/><rect class="cls-2" x="120.29" y="303.46" width="18" height="2"/><text class="cls-13" transform="translate(59.84 324.04)">Table input</text><path class="cls-10" d="M100.62,283.21H81.5a.56.56,0,0,0-.56.56v4a.56.56,0,0,0,.56.56h19.12a.56.56,0,0,0,.56-.56v-4a.56.56,0,0,0-.56-.56m-3,3.68a1.15,1.15,0,1,1,1.14-1.15,1.15,1.15,0,0,1-1.14,1.15"/><path class="cls-10" d="M100.62,290.81H81.5a.56.56,0,0,0-.56.56v3.95a.56.56,0,0,0,.56.56h19.12a.56.56,0,0,0,.56-.56v-3.95a.56.56,0,0,0-.56-.56m-3,3.68a1.15,1.15,0,1,1,1.14-1.15,1.15,1.15,0,0,1-1.14,1.15"/><path class="cls-10" d="M100.62,298.46H81.5a.56.56,0,0,0-.56.56v4a.57.57,0,0,0,.56.56h19.12a.57.57,0,0,0,.56-.56v-4a.57.57,0,0,0-.56-.56m-3,3.68A1.14,1.14,0,1,1,98.8,301a1.14,1.14,0,0,1-1.14,1.14"/><rect class="cls-3" x="728.18" y="239.73" width="110" height="131.08" rx="7.81"/><text class="cls-6" transform="translate(760.97 307.18)">Deploy <tspan class="cls-8"><tspan x="-17.48" y="14.4">your model to </tspan><tspan x="-19.51" y="28.8">get predictions</tspan></tspan></text><path class="cls-10" d="M792.12,267.22a9.11,9.11,0,0,0-17-2.43,7.3,7.3,0,0,0,.79,14.55H791.7a6.07,6.07,0,0,0,.42-12.12Zm-6.5,3.6v4.87h-4.87v-4.87H777.1l6.08-6.08,6.08,6.08Z"/><rect class="cls-3" x="597.2" y="239.73" width="110" height="131.08" rx="7.81"/><text class="cls-6" transform="translate(625.86 307.18)">Evaluate<tspan class="cls-14" x="49.88" y="0"> </tspan><tspan class="cls-8"><tspan x="-5.81" y="14.4">your model </tspan><tspan x="2.52" y="28.8">behavior</tspan></tspan></text><path class="cls-10" d="M657.17,264.83,650,272l-3.88-3.87-1.53,1.53L650,275l8.65-8.65Zm-5-6A10.82,10.82,0,1,0,663,269.61,10.82,10.82,0,0,0,652.2,258.79Zm0,19.47a8.65,8.65,0,1,1,8.65-8.65A8.65,8.65,0,0,1,652.2,278.26Z"/><polygon class="cls-11" points="596.19 304.46 589.72 310.23 589.72 298.79 596.19 304.46"/><rect class="cls-2" x="581.19" y="303.46" width="14" height="2"/><polygon class="cls-11" points="727.07 304.46 720.61 310.23 720.61 298.79 727.07 304.46"/><rect class="cls-2" x="708.07" y="303.46" width="18" height="2"/><polygon class="cls-11" points="857.12 304.46 850.65 310.23 850.65 298.79 857.12 304.46"/><rect class="cls-2" x="838.12" y="303.46" width="18" height="2"/><text class="cls-13" transform="translate(861.71 327.04)">Prediction <tspan x="8.52" y="14.4">outputs</tspan></text><rect class="cls-15" x="866.83" y="264.93" width="58" height="53.86"/><polygon class="cls-10" points="881.46 296.73 879.8 295.73 887.1 283.55 894.12 295.39 892.44 296.39 887.09 287.35 881.46 296.73"/><path class="cls-10" d="M893.21,292.84a2.93,2.93,0,1,1-2.93,2.92,2.92,2.92,0,0,1,2.93-2.92"/><path class="cls-10" d="M880.71,293.18a2.93,2.93,0,1,1-2.93,2.93,2.93,2.93,0,0,1,2.93-2.93"/><path class="cls-10" d="M896.79,292.36l-1.67-1,1.29-2.2,1.68,1Zm2.36-4-1.67-1,1.29-2.2,1.68,1Zm2.36-4-1.68-1,1.3-2.21,1.68,1Z"/><polygon class="cls-10" points="904.54 283.22 904.59 277.21 899.36 280.17 904.54 283.22"/><rect class="cls-16" x="273.88" y="239.73" width="110" height="131.08" rx="7.81"/><polygon class="cls-11" points="195.85 370.8 201.63 377.27 190.18 377.27 195.85 370.8"/><polygon class="cls-11" points="783.4 239.73 777.62 233.26 789.07 233.26 783.4 239.73"/><path class="cls-10" d="M184.4,269.19l9-9a2,2,0,0,1,1.41-.58h7a2,2,0,0,1,2,2v7a2,2,0,0,1-.58,1.42l-9,9a2,2,0,0,1-2.81,0l-7-7a2,2,0,0,1-.59-1.41A2,2,0,0,1,184.4,269.19Zm15.88-4.57a1.5,1.5,0,1,0-1.5-1.5A1.5,1.5,0,0,0,200.28,264.62Z"/></g></svg>