<svg width="669" height="412" xmlns="http://www.w3.org/2000/svg" xmlns:xlink="http://www.w3.org/1999/xlink"><defs><rect id="a" width="211" height="268" rx="2"/><rect id="c" width="211" height="268" rx="2"/><rect id="e" width="211" height="268" rx="2"/></defs><g fill="none" fill-rule="evenodd"><path fill="#FFF" d="M0 0h669v412H0z"/><text transform="translate(10)" fill="#747474" font-family="Roboto-Bold, Roboto" font-size="14" font-weight="bold"><tspan x=".613" y="13">High-performance object storage</tspan></text><text transform="translate(356)" fill="#747474" font-family="Roboto-Bold, Roboto" font-size="14" font-weight="bold"><tspan x="0" y="13">Backup and archival storage</tspan></text><g stroke-dasharray="2,4" transform="translate(229 93)"><mask id="b" fill="#fff"><use xlink:href="#a"/></mask><path d="M2 0h207a2 2 0 0 1 2 2v264a2 2 0 0 1-2 2H2a2 2 0 0 1-2-2V2a2 2 0 0 1 2-2z" stroke="#DFDFDF" stroke-width="4" mask="url(#b)"/></g><text font-family="Roboto-Regular, Roboto" font-size="14" fill="#8FA3AD" transform="translate(245 111)"><tspan x="1" y="95">Our Nearline class of </tspan> <tspan x="1" y="115">storage is fast, highly</tspan> <tspan x="1" y="135">durable storage for data </tspan> <tspan x="1" y="155">accessed less than</tspan> <tspan x="1" y="175" font-family="Roboto-Bold, Roboto" font-weight="bold">once a month.</tspan></text><g fill-rule="nonzero" transform="translate(245 111)"><ellipse fill="#7E65BD" cx="31.603" cy="31.639" rx="31.603" ry="31.639"/><g fill="#FFF"><path d="M44.484 23.082l-26.473.001a.777.777 0 0 0-.775.774l.001 5.464c0 .425.349.773.774.773h26.473a.776.776 0 0 0 .774-.773v-5.465a.776.776 0 0 0-.774-.774m-4.099 5.088a1.58 1.58 0 1 1 0-3.162 1.58 1.58 0 0 1 1.584 1.58c0 .873-.709 1.582-1.584 1.582M44.484 33.587H18.011a.777.777 0 0 0-.775.775l.001 5.464c0 .424.349.773.774.773h26.473a.777.777 0 0 0 .774-.773V34.36a.777.777 0 0 0-.774-.774m-4.099 5.087a1.58 1.58 0 1 1 0-3.162 1.58 1.58 0 1 1 0 3.162"/></g></g><text transform="translate(320 135)" fill="#8FA3AD" font-family="Roboto-Bold, Roboto" font-size="14" font-weight="bold"><tspan x="0" y="13">Nearline</tspan></text><g stroke-dasharray="2,4" transform="translate(449 93)"><mask id="d" fill="#fff"><use xlink:href="#c"/></mask><path d="M2 0h207a2 2 0 0 1 2 2v264a2 2 0 0 1-2 2H2a2 2 0 0 1-2-2V2a2 2 0 0 1 2-2z" stroke="#DFDFDF" stroke-width="4" mask="url(#d)"/></g><text font-family="Roboto-Regular, Roboto" font-size="14" fill="#8FA3AD" transform="translate(465 111)"><tspan x="1" y="95">Our Coldline class of </tspan> <tspan x="1" y="115">storage is fast, highly </tspan> <tspan x="1" y="135">durable storage for data </tspan> <tspan x="1" y="155">accessed less than </tspan> <tspan x="123.712" y="155" font-family="Roboto-Bold, Roboto" font-weight="bold">once </tspan> <tspan x="1" y="175" font-family="Roboto-Bold, Roboto" font-weight="bold">a year.</tspan></text><g fill-rule="nonzero" transform="translate(465 111)"><ellipse fill="#5C6BC0" cx="31.603" cy="31.639" rx="31.603" ry="31.639"/><g fill="#FFF"><path d="M44.484 23.082l-26.473.001a.777.777 0 0 0-.775.774l.001 5.464c0 .425.349.773.774.773h26.473a.776.776 0 0 0 .774-.773v-5.465a.776.776 0 0 0-.774-.774m-4.099 5.088a1.58 1.58 0 1 1 0-3.162 1.58 1.58 0 0 1 1.584 1.58c0 .873-.709 1.582-1.584 1.582M44.484 33.587H18.011a.777.777 0 0 0-.775.775l.001 5.464c0 .424.349.773.774.773h26.473a.777.777 0 0 0 .774-.773V34.36a.777.777 0 0 0-.774-.774m-4.099 5.087a1.58 1.58 0 1 1 0-3.162 1.58 1.58 0 1 1 0 3.162"/></g></g><text transform="translate(540 135)" fill="#8FA3AD" font-family="Roboto-Bold, Roboto" font-size="14" font-weight="bold"><tspan x="0" y="13">Coldline</tspan></text><g stroke-dasharray="2,4" transform="translate(9 93)"><mask id="f" fill="#fff"><use xlink:href="#e"/></mask><path d="M2 0h207a2 2 0 0 1 2 2v264a2 2 0 0 1-2 2H2a2 2 0 0 1-2-2V2a2 2 0 0 1 2-2z" stroke="#DFDFDF" stroke-width="4" mask="url(#f)"/></g><text font-family="Roboto-Regular, Roboto" font-size="14" fill="#8FA3AD" transform="translate(25 111)"><tspan x="1" y="95">Most projects start with our </tspan> <tspan x="1" y="115">Standard class of storage, </tspan> <tspan x="1" y="135">which is </tspan> <tspan x="55.216" y="135" font-family="Roboto-Bold, Roboto" font-weight="bold">optimized</tspan> <tspan x="1" y="155" font-family="Roboto-Bold, Roboto" font-weight="bold">for end-user latency.</tspan></text><g fill-rule="nonzero" transform="translate(25 111)"><ellipse fill="#9C5FBA" cx="31.603" cy="31.639" rx="31.603" ry="31.639"/><g fill="#FFF"><path d="M44.484 23.082l-26.473.001a.777.777 0 0 0-.775.774l.001 5.464c0 .425.349.773.774.773h26.473a.776.776 0 0 0 .774-.773v-5.465a.776.776 0 0 0-.774-.774m-4.099 5.088a1.58 1.58 0 1 1 0-3.162 1.58 1.58 0 0 1 1.584 1.58c0 .873-.709 1.582-1.584 1.582M44.484 33.587H18.011a.777.777 0 0 0-.775.775l.001 5.464c0 .424.349.773.774.773h26.473a.777.777 0 0 0 .774-.773V34.36a.777.777 0 0 0-.774-.774m-4.099 5.087a1.58 1.58 0 1 1 0-3.162 1.58 1.58 0 1 1 0 3.162"/></g></g><text transform="translate(100 135)" fill="#8FA3AD" font-family="Roboto-Bold, Roboto" font-size="14" font-weight="bold"><tspan x="0" y="13">Standard</tspan></text><g><path fill="#7E65BD" fill-rule="nonzero" d="M229 51h211v27H229z"/><text transform="translate(261 57)" fill="#FFF" font-family="Roboto-Bold, Roboto" font-size="12" font-weight="bold"><tspan x=".043" y="11">LOW FREQUENCY ACCESS</tspan></text></g><g><path fill="#5C6BC0" fill-rule="nonzero" d="M449 51h211v27H449z"/><text transform="translate(472 57)" fill="#FFF" font-family="Roboto-Bold, Roboto" font-size="12" font-weight="bold"><tspan x=".688" y="11">LOWEST FREQUENCY ACCESS</tspan></text></g><g><path fill="#9C5FBA" fill-rule="nonzero" d="M9 51h211v27H9z"/><text transform="translate(40 58)" fill="#FFF" font-family="Roboto-Bold, Roboto" font-size="12" font-weight="bold"><tspan x=".481" y="11">HIGH FREQUENCY ACCESS</tspan></text></g><path stroke="#5C6BC0" d="M230 36.954V29h428v8M10 36.954V29h211v8"/><g fill="#747474" font-family="Roboto-Regular, Roboto" font-size="15"><text transform="translate(219 394)"><tspan x=".051" y="14">A single API for all storage classes</tspan></text></g><path stroke="#4A90E2" d="M7 376.046V384h655v-8"/></g></svg>